# xmcd
#
# Track frame offsets:
#	150
#	9798
#	21321
#	31974
#	40984
#	51359
#	63234
#	75259
#	88069
#	100147
#	111932
#	123357
#	132487
#	144025
#	157160
#	168135
#
# Disc length: 2378 seconds
#
# Revision: 0
# Processed by: cddbd v1.5.2PL0 Copyright (c) Steve Scherf et al.
# Submitted via: EZCDAudioConverter 3.1.0.1
#
DISCID=c5094810
DTITLE=VA_ - Stompin Volume Six
DYEAR=1900
DGENRE=Rhythm and Blues
TTITLE0=Billy Gayles - Sad As A Man Can Be
TTITLE1=Johnny Spain - I'm In Love
TTITLE2=Poor Bob - The Sun Is Shining
TTITLE3=King Perry - Big Fat Mama
TTITLE4=Little Lawrence and The Suspenders - Don't Mess Around
TTITLE5=Tye-Tongue Hanley - You Got My Nose Wide Open
TTITLE6=Young Jesse - Make Me Feel A Little Good
TTITLE7=Rev  Ballinger - This Train
TTITLE8=Billy Gayles - Just One More Time
TTITLE9=Jesse Anderson and The Sparklers - Your Letter
TTITLE10=Roy Wright - I've Got It
TTITLE11=T  Valentine and Co - Betty Sue
TTITLE12=Willard Harris and His Czars Of Rhythm - Straighten Up Baby
TTITLE13=Little Shy Guy and The Hot Rods - Let's Rock And Roll
TTITLE14=Boogaloo and His Gallant Crew - Clothes Line
TTITLE15=Frank Motley's Crew &Angelface - When The Saints
EXTD=
EXTT0=
EXTT1=
EXTT2=
EXTT3=
EXTT4=
EXTT5=
EXTT6=
EXTT7=
EXTT8=
EXTT9=
EXTT10=
EXTT11=
EXTT12=
EXTT13=
EXTT14=
EXTT15=
PLAYORDER=
